<svg version="1.1" id="Layer_1" xmlns="http://www.w3.org/2000/svg" xmlns:xlink="http://www.w3.org/1999/xlink" x="0px" y="0px"
	 width="430px" height="139.5px" viewBox="0 0 430 139.5" enable-background="new 0 0 430 139.5" xml:space="preserve">
<rect x="11.166" y="57.914" fill="#0A6FB6" width="22.66" height="62.983"/>
<polygon fill="#DE3D27" points="97.035,57.116 69.139,57.116 37.334,89.935 68.274,120.875 97.27,120.875 66.784,90.39 "/>
<g>
	<defs>
		<rect id="SVGID_1_" x="-560.978" y="-368.566" width="1556.09" height="875.301"/>
	</defs>
	<clipPath id="SVGID_2_">
		<use xlink:href="#SVGID_1_"  overflow="visible"/>
	</clipPath>
	<path clip-path="url(#SVGID_2_)" fill="#0A6FB6" d="M140.439,60.156h20.754v58.5h-20.754v-6.5
		c-4.447,5.588-10.378,8.325-17.903,8.325c-8.438,0-15.508-2.966-21.096-8.896c-5.588-5.93-8.438-13.342-8.438-22.351
		c0-8.552,2.736-15.851,8.325-21.895c5.587-6.044,12.543-9.009,20.981-9.009c7.298,0,13.343,2.509,18.131,7.641V60.156z
		 M118.317,98.813c2.622,2.622,5.702,3.877,9.464,3.877c3.648,0,6.728-1.255,9.351-3.877c2.623-2.623,3.991-5.701,3.991-9.351
		c0-3.763-1.369-6.841-3.991-9.465c-2.623-2.624-5.702-3.877-9.351-3.877c-3.763,0-6.842,1.254-9.464,3.877
		c-2.623,2.508-3.877,5.588-3.877,9.236C114.44,92.998,115.694,96.19,118.317,98.813"/>
	<path clip-path="url(#SVGID_2_)" fill="#0A6FB6" d="M177.275,29.48c4.562-4.561,11.859-4.561,16.423,0
		c4.56,4.562,4.56,11.86,0,16.421c-4.564,4.562-11.861,4.562-16.423,0C172.714,41.34,172.714,34.042,177.275,29.48 M175.223,60.155
		h20.639v58.5h-20.639V60.155z"/>
	<path clip-path="url(#SVGID_2_)" fill="#0A6FB6" d="M210.004,118.655v-58.5h20.639v9.579c4.448-6.956,10.833-10.377,19.271-10.377
		c1.597,0,2.965,0.114,3.99,0.228v19.729c-2.735-1.368-5.7-2.053-8.895-2.053c-9.577,0-14.367,5.475-14.367,16.307v25.088H210.004z"
		/>
	<path clip-path="url(#SVGID_2_)" fill="#0A6FB6" d="M267.119,66.884c6.729-5.93,15.053-8.895,25.201-8.895
		s18.474,2.964,25.089,8.895c6.728,5.815,10.035,13.342,10.035,22.579s-3.308,16.877-10.035,22.692
		c-6.615,5.815-15.055,8.667-25.43,8.667c-10.149,0-18.474-2.965-24.975-8.781c-6.499-5.929-9.808-13.685-9.808-23.148
		C257.197,80.111,260.506,72.813,267.119,66.884 M292.32,102.69c3.649,0,6.728-1.255,9.351-3.877
		c2.624-2.623,3.992-5.815,3.992-9.58c0-3.762-1.368-6.841-3.992-9.464c-2.623-2.624-5.701-3.878-9.351-3.878
		c-3.647,0-6.84,1.254-9.465,3.878c-2.621,2.623-3.875,5.702-3.875,9.351C278.98,96.874,285.022,102.69,292.32,102.69"/>
	<path clip-path="url(#SVGID_2_)" fill="#0A6FB6" d="M371.666,75.323c-3.764-1.939-7.527-2.965-11.175-2.965
		c-3.764,0-6.388,1.824-6.388,4.219c0,1.254,0.457,2.28,1.482,2.851c1.028,0.572,3.649,1.255,7.869,2.053
		c11.289,2.28,16.991,8.096,16.991,17.333c0,6.728-2.623,12.087-7.753,16.079c-5.133,3.991-11.746,5.93-20.071,5.93
		c-7.869,0-15.736-2.28-23.378-6.728l7.526-14.598c5.817,3.991,11.291,5.932,16.423,5.932c3.763,0,6.5-1.825,6.5-4.448
		c0-3.079-1.142-3.992-8.782-5.475c-12.658-2.622-17.22-7.069-17.22-16.192c0-6.5,2.395-11.632,7.071-15.395
		c4.789-3.877,11.176-5.816,19.044-5.816c6.5,0,12.771,1.254,18.815,3.763L371.666,75.323z"/>
	
		<rect x="412.434" y="19.08" transform="matrix(0.707 0.7072 -0.7072 0.707 138.6909 -287.8865)" clip-path="url(#SVGID_2_)" fill="#0A6FB6" width="8.727" height="8.726"/>
	
		<rect x="412.434" y="19.08" transform="matrix(0.707 0.7072 -0.7072 0.707 138.6909 -287.8865)" clip-path="url(#SVGID_2_)" fill="#0A6FB6" width="8.727" height="8.726"/>
	
		<rect x="412.434" y="19.08" transform="matrix(0.707 0.7072 -0.7072 0.707 138.6909 -287.8865)" clip-path="url(#SVGID_2_)" fill="#0A6FB6" width="8.727" height="8.726"/>
	
		<rect x="400.093" y="19.079" transform="matrix(0.7072 0.707 -0.707 0.7072 135.0038 -279.0959)" clip-path="url(#SVGID_2_)" fill="#0A6FB6" width="8.729" height="8.728"/>
	
		<rect x="400.093" y="19.079" transform="matrix(0.7072 0.707 -0.707 0.7072 135.0038 -279.0959)" clip-path="url(#SVGID_2_)" fill="#0A6FB6" width="8.729" height="8.728"/>
	
		<rect x="400.093" y="19.079" transform="matrix(0.7072 0.707 -0.707 0.7072 135.0038 -279.0959)" clip-path="url(#SVGID_2_)" fill="#0A6FB6" width="8.729" height="8.728"/>
	
		<rect x="387.75" y="19.08" transform="matrix(0.7071 0.7071 -0.7071 0.7071 131.4129 -270.3899)" clip-path="url(#SVGID_2_)" fill="#0A6FB6" width="8.728" height="8.727"/>
	
		<rect x="387.75" y="19.08" transform="matrix(0.7071 0.7071 -0.7071 0.7071 131.4129 -270.3899)" clip-path="url(#SVGID_2_)" fill="#0A6FB6" width="8.728" height="8.727"/>
	
		<rect x="387.75" y="19.08" transform="matrix(0.7071 0.7071 -0.7071 0.7071 131.4129 -270.3899)" clip-path="url(#SVGID_2_)" fill="#0A6FB6" width="8.728" height="8.727"/>
	
		<rect x="375.409" y="19.08" transform="matrix(0.7071 0.7071 -0.7071 0.7071 127.821 -261.6832)" clip-path="url(#SVGID_2_)" fill="#0A6FB6" width="8.727" height="8.727"/>
	
		<rect x="375.409" y="19.08" transform="matrix(0.7071 0.7071 -0.7071 0.7071 127.821 -261.6832)" clip-path="url(#SVGID_2_)" fill="#0A6FB6" width="8.727" height="8.727"/>
	
		<rect x="375.409" y="19.08" transform="matrix(0.7071 0.7071 -0.7071 0.7071 127.821 -261.6832)" clip-path="url(#SVGID_2_)" fill="#0A6FB6" width="8.727" height="8.727"/>
	
		<rect x="412.434" y="31.422" transform="matrix(0.707 0.7072 -0.7072 0.707 147.4194 -284.2704)" clip-path="url(#SVGID_2_)" fill="#0A6FB6" width="8.727" height="8.727"/>
	
		<rect x="412.433" y="43.766" transform="matrix(0.707 0.7072 -0.7072 0.707 156.1611 -280.6646)" clip-path="url(#SVGID_2_)" fill="#0A6FB6" width="8.727" height="8.726"/>
	
		<rect x="412.434" y="56.108" transform="matrix(0.707 0.7072 -0.7072 0.707 164.8766 -277.0382)" clip-path="url(#SVGID_2_)" fill="#0A6FB6" width="8.727" height="8.727"/>
	
		<rect x="393.92" y="37.592" transform="matrix(0.7069 0.7073 -0.7073 0.7069 146.3952 -269.401)" clip-path="url(#SVGID_2_)" fill="#DE3D27" width="8.728" height="8.726"/>
	
		<rect x="381.58" y="37.591" transform="matrix(0.7071 0.7072 -0.7072 0.7071 142.731 -260.6348)" clip-path="url(#SVGID_2_)" fill="#DE3D27" width="8.729" height="8.727"/>
	
		<rect x="369.237" y="37.591" transform="matrix(0.7071 0.7072 -0.7072 0.7071 139.1152 -251.9065)" clip-path="url(#SVGID_2_)" fill="#DE3D27" width="8.729" height="8.727"/>
	
		<rect x="356.895" y="37.591" transform="matrix(0.7071 0.7072 -0.7072 0.7071 135.4996 -243.1788)" clip-path="url(#SVGID_2_)" fill="#DE3D27" width="8.729" height="8.727"/>
	
		<rect x="393.921" y="49.933" transform="matrix(0.707 0.7072 -0.7072 0.707 155.0862 -265.7552)" clip-path="url(#SVGID_2_)" fill="#DE3D27" width="8.727" height="8.726"/>
	
		<rect x="393.921" y="62.274" transform="matrix(0.7071 0.7072 -0.7072 0.7071 163.8009 -262.1302)" clip-path="url(#SVGID_2_)" fill="#DE3D27" width="8.726" height="8.727"/>
	
		<rect x="393.921" y="74.617" transform="matrix(0.7071 0.7072 -0.7072 0.7071 172.5289 -258.5146)" clip-path="url(#SVGID_2_)" fill="#DE3D27" width="8.726" height="8.726"/>
</g>
</svg>