<?xml version="1.0" standalone="no"?>
<!DOCTYPE svg PUBLIC "-//W3C//DTD SVG 20010904//EN"
 "http://www.w3.org/TR/2001/REC-SVG-20010904/DTD/svg10.dtd">
<svg version="1.0" xmlns="http://www.w3.org/2000/svg"
 width="1920.000000pt" height="1082.000000pt" viewBox="0 0 1920.000000 1082.000000"
 preserveAspectRatio="xMidYMid meet">
<metadata>
Created by potrace 1.15, written by Peter Selinger 2001-2017
</metadata>
<g transform="translate(0.000000,1082.000000) scale(0.100000,-0.100000)"
fill="#000000" stroke="none">
<path d="M15091 10368 c-418 -410 -903 -894 -912 -911 -16 -28 25 -101 79
-145 104 -83 352 -304 352 -314 0 -5 -18 -31 -40 -56 -22 -25 -39 -48 -38 -52
2 -3 39 -37 83 -75 108 -94 668 -586 994 -875 146 -130 343 -303 436 -385 94
-82 251 -221 350 -309 99 -88 306 -270 460 -406 154 -136 338 -298 409 -361
72 -63 129 -119 127 -124 -1 -6 -11 -13 -22 -17 -15 -6 -31 2 -64 33 -25 23
-42 45 -39 50 3 5 -2 9 -11 9 -22 0 -105 70 -105 89 0 8 -3 11 -6 8 -9 -9
-105 73 -99 83 3 4 -6 11 -19 14 -13 3 -41 25 -62 48 -21 24 -43 45 -50 48
-20 9 -84 69 -84 80 0 5 -5 10 -11 10 -17 0 -110 81 -104 90 3 4 -6 11 -19 14
-13 3 -40 24 -60 46 -20 22 -39 40 -43 40 -5 0 -54 44 -111 98 -56 53 -105 98
-107 99 -21 9 -95 80 -95 91 0 7 -5 10 -10 7 -6 -3 -33 16 -60 44 -28 28 -54
51 -59 51 -5 0 -28 21 -52 47 -24 27 -47 48 -50 48 -11 0 -89 75 -89 85 0 5
-6 10 -13 10 -7 0 -35 21 -62 47 -28 26 -53 46 -56 45 -4 -1 -28 21 -53 48
-26 28 -51 50 -55 50 -5 0 -29 23 -55 50 -26 28 -49 50 -52 50 -14 0 -94 74
-94 87 0 8 -5 11 -11 8 -5 -4 -33 16 -60 44 -28 27 -54 51 -59 53 -22 8 -200
173 -200 185 0 8 -5 11 -11 8 -5 -4 -33 16 -61 44 -28 28 -53 51 -55 51 -13 0
-93 77 -93 89 0 8 -3 11 -6 8 -10 -9 -104 72 -104 90 0 8 -4 12 -10 8 -5 -3
-34 18 -65 47 -31 29 -76 69 -100 88 -25 19 -45 41 -45 48 0 7 -4 10 -10 7 -5
-3 -10 2 -10 11 0 10 -3 14 -6 11 -9 -9 -84 52 -81 66 1 7 -3 11 -10 10 -8 -2
-10 4 -6 13 4 11 2 15 -7 12 -30 -10 -16 -28 92 -124 339 -300 1999 -1764
2497 -2202 l285 -250 71 77 72 76 44 -37 c24 -19 112 -97 196 -171 153 -137
211 -177 257 -177 14 0 242 103 508 229 266 125 525 247 576 271 l92 43 0 118
c0 66 -2 119 -4 119 -2 0 -111 -52 -243 -116 -570 -278 -955 -464 -960 -464
-3 0 0 6 6 14 9 11 7 15 -11 21 -13 4 -26 7 -30 6 -5 -1 -7 4 -5 11 1 7 -5 12
-13 13 -8 0 -15 5 -15 12 0 25 -100 117 -117 108 -7 -4 -4 1 7 10 11 9 89 52
173 96 83 44 152 82 152 85 0 4 -53 -21 -244 -117 l-99 -50 -30 28 c-17 15
-38 35 -47 44 -9 8 -25 22 -36 30 -10 8 -28 24 -38 37 -17 19 -17 22 -3 16 9
-3 17 -3 17 1 0 12 -44 55 -58 55 -7 0 -15 7 -19 16 -3 8 -12 13 -20 10 -8 -3
-12 -2 -9 2 7 12 -24 53 -35 47 -5 -4 -9 -1 -9 4 0 6 -7 11 -17 11 -14 0 -14
-3 3 -22 l19 -22 -26 19 c-17 13 -25 27 -23 42 1 13 -3 26 -8 30 -6 3 -8 1 -4
-5 3 -6 2 -13 -3 -16 -5 -4 -13 3 -16 15 -6 17 -9 18 -16 8 -6 -11 -9 -10 -15
4 -3 9 -10 15 -14 12 -4 -3 -10 2 -13 10 -7 15 51 52 296 189 75 43 137 80
137 82 0 3 -3 3 -7 1 -85 -49 -344 -192 -391 -216 -63 -32 -89 -33 -77 -2 5
12 3 13 -6 4 -11 -11 -36 6 -103 73 -12 11 -68 61 -125 110 -58 49 -118 101
-135 117 -29 26 -46 34 -46 22 0 -3 12 -18 28 -32 15 -14 20 -20 11 -14 -9 6
-23 10 -30 8 -8 -2 -10 -2 -6 1 4 2 3 9 -2 16 -26 32 -4 55 131 135 48 28 90
56 94 63 4 6 3 9 -2 6 -5 -3 -62 -38 -128 -77 -118 -71 -119 -72 -140 -53 -30
27 -83 73 -142 123 -103 89 -274 241 -274 244 0 2 62 45 138 95 75 51 144 99
152 107 14 15 -18 -5 -212 -134 -42 -28 -82 -53 -90 -56 -9 -3 -5 -11 14 -28
14 -13 72 -64 127 -114 58 -51 96 -92 90 -96 -8 -4 -8 -9 -1 -13 6 -3 12 -2
14 3 1 5 28 -13 58 -41 30 -27 46 -45 35 -40 -11 6 -29 20 -39 31 -26 28 -44
27 -20 -1 23 -27 -110 88 -180 155 -28 27 -45 46 -37 41 9 -5 12 -3 7 5 -4 6
-12 9 -17 5 -13 -8 -40 16 -32 29 3 5 2 7 -4 4 -6 -4 -163 127 -349 291 -1051
920 -1714 1506 -1712 1511 3 6 311 304 781 755 l218 209 27 -25 c15 -14 533
-470 1152 -1014 619 -543 1235 -1085 1370 -1204 135 -119 342 -301 461 -405
118 -105 340 -300 493 -435 153 -135 282 -246 287 -248 5 -2 9 38 9 90 l-1 93
-461 405 c-254 223 -637 560 -852 749 -582 512 -814 717 -1201 1056 -192 170
-509 448 -704 619 -497 437 -519 455 -586 487 -101 49 -94 52 -304 -153z"/>
<path d="M15561 10062 l-43 -38 238 -209 c132 -115 255 -224 274 -241 19 -18
343 -303 720 -635 377 -331 696 -613 710 -625 14 -12 126 -111 248 -219 123
-108 238 -209 255 -224 44 -39 433 -381 592 -520 71 -63 183 -161 247 -218
l117 -104 56 28 56 29 -362 320 c-200 175 -517 454 -704 619 -324 285 -1247
1098 -2008 1768 -192 169 -349 307 -350 307 -1 0 -22 -18 -46 -38z"/>
<path d="M15273 9981 c-35 -32 -63 -62 -63 -67 0 -4 19 -27 42 -51 60 -62 39
-65 -24 -4 -77 74 -86 75 -159 4 l-60 -59 70 -64 69 -65 147 136 c81 75 147
140 147 144 0 9 -91 85 -101 85 -3 -1 -34 -27 -68 -59z m-101 -91 c7 -11 18
-20 23 -20 6 0 26 -15 44 -34 l32 -33 -62 -56 -62 -55 -36 33 c-20 18 -47 43
-60 54 -22 19 -24 60 -2 46 5 -3 12 4 16 15 6 18 17 25 38 21 5 -1 6 3 3 8 -6
9 30 41 46 41 4 0 13 -9 20 -20z"/>
<path d="M9436 9819 c-3 -8 -14 -45 -25 -84 -11 -38 -34 -115 -50 -170 -57
-193 -102 -364 -104 -392 -1 -15 -5 -30 -9 -33 -9 -7 -20 -64 -25 -132 -6 -67
-18 -59 160 -110 62 -18 118 -38 126 -46 11 -11 15 -11 22 0 7 11 9 11 9 0 0
-9 7 -11 19 -7 24 7 73 -4 65 -16 -3 -5 1 -10 8 -10 7 -1 24 -3 38 -4 14 -2
75 -17 135 -34 61 -17 116 -31 122 -31 22 0 52 94 164 522 9 35 11 36 47 32
l37 -4 -32 10 c-25 8 -30 14 -26 31 5 16 8 18 15 7 5 -8 7 4 3 32 -4 29 1 81
15 144 11 55 19 101 17 103 -9 9 -366 151 -370 147 -2 -3 -15 0 -29 5 -14 5
-45 12 -69 14 -24 3 -57 10 -72 16 -16 6 -41 11 -55 10 -15 0 -51 2 -79 6 -41
6 -54 5 -57 -6z"/>
<path d="M14816 9551 c-65 -65 -65 -67 -3 -121 l38 -33 52 50 c29 27 59 56 68
63 14 12 10 19 -33 57 -27 24 -52 43 -56 43 -4 0 -34 -27 -66 -59z"/>
<path d="M3647 9259 c-11 -7 -16 -17 -12 -29 4 -13 0 -20 -13 -24 -18 -6 -19
-16 -16 -163 2 -95 -1 -162 -7 -169 -10 -13 8 -54 23 -54 5 0 8 -5 8 -11 0 -6
9 -23 19 -38 11 -15 22 -38 26 -52 5 -19 20 -30 64 -48 55 -22 60 -22 84 -7
18 12 23 23 19 38 -3 14 2 26 19 39 18 14 21 21 12 30 -7 7 -9 35 -6 85 4 53
2 78 -7 89 -12 14 -16 10 -32 -34 -20 -51 -75 -119 -115 -140 -36 -18 -40 -12
-7 8 42 26 45 31 50 109 3 56 9 111 15 149 1 4 1 28 0 53 -1 51 -11 45 -36
-22 -17 -47 -35 -63 -35 -33 0 21 -28 106 -47 139 -11 19 -13 31 -6 33 6 2 9
13 6 23 -5 17 0 20 28 21 28 0 31 2 14 9 -26 11 -27 11 -48 -1z"/>
<path d="M3285 9078 c7 -29 28 -91 47 -139 36 -88 52 -139 44 -139 -6 0 -91
47 -126 69 -45 29 -65 40 -96 56 -35 18 -48 54 -27 74 8 7 12 16 8 19 -3 3
-15 -4 -27 -16 -19 -18 -20 -23 -7 -39 8 -9 -6 -3 -30 15 -25 17 -47 30 -49
27 -18 -18 204 -240 251 -249 18 -4 68 -14 111 -21 44 -8 82 -19 85 -23 3 -5
13 -12 21 -15 33 -12 -25 -7 -74 7 -127 37 -316 65 -316 48 0 -6 15 -19 33
-29 37 -22 157 -131 157 -143 0 -9 -39 -25 -99 -40 -35 -9 -46 -9 -52 2 -8 13
-13 3 -9 -17 1 -5 -1 -7 -5 -4 -3 4 -23 3 -43 -2 -20 -5 -57 -11 -82 -14 -25
-3 -61 -8 -80 -12 l-35 -6 35 -12 c19 -8 45 -14 57 -14 12 -1 28 -8 37 -16 8
-8 17 -11 20 -6 8 13 56 0 56 -15 0 -8 7 -14 15 -14 8 0 15 -9 15 -19 0 -10 7
-21 15 -25 20 -7 19 -33 -1 -44 -11 -6 -13 -11 -5 -16 6 -4 14 0 17 8 3 9 17
16 31 16 14 0 22 4 18 10 -4 6 -10 8 -15 5 -5 -3 -11 -1 -15 5 -9 15 47 12 68
-4 15 -12 16 -15 2 -26 -12 -10 -13 -16 -4 -26 9 -12 2 -14 -42 -14 l-54 0 29
-25 c25 -21 31 -23 50 -11 11 8 39 16 61 20 27 4 35 2 25 -4 -12 -8 -9 -10 11
-10 32 0 43 -23 28 -53 -12 -20 -12 -20 -39 10 -26 29 -29 30 -50 16 -17 -12
-19 -17 -9 -24 8 -5 16 -3 20 3 6 9 12 8 23 -1 20 -17 21 -35 2 -28 -10 4 -12
0 -9 -14 5 -19 2 -20 -33 -13 -27 4 -36 3 -29 -4 30 -31 272 -182 299 -188 32
-5 141 20 150 35 3 4 -8 8 -24 8 -17 0 -30 -4 -30 -9 0 -5 -10 -8 -22 -6 -15
2 -23 10 -23 23 0 14 6 19 18 17 21 -4 22 6 1 29 -15 16 -12 17 42 14 53 -3
80 -18 68 -37 -3 -4 -1 -8 4 -8 9 0 47 -112 41 -120 -2 -3 -9 -5 -14 -5 -15 0
-97 -25 -117 -36 -10 -5 -27 -9 -39 -9 -27 0 -163 63 -205 95 -18 14 -36 25
-39 25 -4 0 -20 10 -35 23 -15 12 -54 40 -85 62 -67 46 -130 95 -165 127 -54
50 -72 59 -30 14 42 -45 218 -178 340 -258 94 -61 177 -98 219 -98 22 0 55 -9
75 -21 58 -34 104 -28 224 31 59 28 114 57 122 65 8 7 24 15 35 19 12 3 9 4
-7 2 -37 -4 -35 5 5 29 73 43 122 95 88 95 -5 0 -77 -31 -161 -70 -84 -38
-161 -70 -171 -70 -18 0 -19 7 -18 65 1 36 -1 68 -4 72 -12 11 15 33 39 33 15
0 24 -6 24 -16 0 -8 4 -13 8 -10 5 3 7 19 4 37 -3 20 -7 27 -12 19 -5 -7 -15
-10 -24 -7 -8 3 -18 2 -21 -4 -4 -5 -10 -7 -15 -4 -5 3 -2 14 8 23 17 17 44
25 90 24 18 0 20 3 11 14 -9 11 -8 14 7 14 29 0 45 15 38 34 -5 13 -13 16 -30
12 -19 -5 -27 -1 -35 18 -12 26 -62 35 -52 10 3 -8 11 -14 18 -14 20 0 30 -21
14 -31 -8 -5 -25 -9 -39 -9 -19 0 -22 -2 -10 -10 17 -10 14 -15 -17 -24 -28
-9 -29 2 -4 58 11 23 19 57 19 74 -1 38 5 47 27 39 20 -8 19 -27 -2 -27 -26 0
-3 -16 32 -23 25 -5 33 -2 40 16 14 29 35 33 42 8 3 -12 9 -21 14 -21 14 0 11
-28 -3 -33 -10 -4 -10 -6 -1 -6 6 -1 15 4 18 9 3 6 15 10 26 10 20 0 26 15 9
25 -5 3 -10 1 -10 -4 0 -21 -19 -11 -37 19 -9 17 -25 30 -35 30 -10 0 -18 5
-18 11 0 7 -16 34 -35 60 -19 27 -30 49 -25 49 6 0 10 -4 10 -10 0 -19 30 -10
46 15 9 14 20 23 24 20 5 -3 11 -1 14 4 7 11 124 71 138 71 11 0 27 13 80 63
40 37 58 89 37 103 -5 3 -6 -3 -2 -12 5 -14 3 -16 -11 -11 -10 4 -15 3 -11 -3
11 -17 -75 -51 -157 -61 -72 -9 -107 -7 -159 7 -12 3 -15 -3 -13 -28 2 -18 1
-25 -2 -15 -3 9 -14 17 -24 17 -10 0 -20 4 -22 9 -1 5 -27 22 -56 37 -29 16
-52 31 -50 34 10 16 -102 170 -124 170 -4 0 -8 -14 -8 -30 0 -30 -24 -100 -34
-100 -5 0 9 54 19 70 4 6 4 31 1 55 -5 33 -18 54 -55 92 -48 49 -111 99 -121
96 -3 -1 -7 1 -9 3 -2 2 2 4 9 4 8 0 -1 15 -20 35 -19 19 -37 35 -41 35 -3 0
-1 -24 6 -52z"/>
<path d="M14096 8898 c-20 -23 -36 -50 -36 -59 0 -20 172 -179 193 -179 15 0
69 55 85 86 14 26 12 28 -94 122 -44 40 -88 72 -97 72 -8 0 -32 -19 -51 -42z"/>
<path d="M4301 8688 c-7 -73 -15 -140 -17 -149 -7 -25 19 -29 44 -8 17 13 26
38 37 101 8 46 15 88 15 93 0 14 -52 95 -61 95 -3 0 -11 -60 -18 -132z"/>
<path d="M8295 8731 c-110 -37 -200 -72 -200 -77 0 -15 27 -88 35 -97 4 -5
100 21 213 57 l206 66 -21 60 c-11 33 -23 60 -26 59 -4 0 -97 -31 -207 -68z"/>
<path d="M13926 8705 c-42 -47 -76 -91 -76 -97 0 -20 169 -168 192 -168 16 0
136 128 156 166 6 11 8 24 4 30 -20 27 -171 154 -184 154 -9 0 -50 -38 -92
-85z"/>
<path d="M14344 8686 c-44 -46 -51 -61 -36 -81 25 -35 172 -155 190 -155 28 0
96 83 87 107 -6 16 -148 147 -182 166 -11 6 -27 -4 -59 -37z"/>
<path d="M8595 8585 c-71 -23 -366 -120 -655 -215 -289 -94 -530 -177 -537
-183 -9 -9 -9 -18 2 -37 8 -14 14 -20 15 -13 0 6 15 15 33 18 17 4 37 11 42
15 6 4 37 15 70 25 33 9 67 20 75 23 22 8 43 13 62 15 10 1 27 10 38 19 11 10
20 13 20 8 0 -11 32 -1 41 12 3 5 12 11 20 12 70 14 89 19 89 27 0 5 7 5 17 2
11 -4 14 -3 9 6 -5 8 -3 11 5 10 17 -3 80 11 94 21 6 4 31 13 57 20 26 7 46
16 43 20 -2 4 7 6 20 4 14 -1 25 2 25 6 0 5 20 12 45 16 25 3 49 12 53 20 4 7
25 15 47 18 22 2 41 5 43 7 1 1 5 2 10 3 4 1 25 10 47 20 22 10 53 19 69 21
15 3 34 9 42 16 7 6 18 8 24 4 5 -3 10 -1 10 5 0 7 6 10 14 7 8 -3 20 1 27 9
6 8 14 12 16 10 3 -2 22 2 44 9 21 8 39 12 39 9 0 -2 9 0 19 6 26 13 27 11 79
-135 52 -147 48 -115 -6 55 -31 99 -44 125 -58 127 -11 1 -77 -18 -149 -42z"/>
<path d="M14161 8498 c-39 -46 -71 -90 -71 -100 0 -17 167 -168 187 -168 17 0
163 162 163 182 0 22 -162 168 -187 168 -13 0 -47 -30 -92 -82z"/>
<path d="M13795 8552 c-29 -21 -145 -161 -145 -175 0 -14 256 -248 296 -270
12 -7 26 2 61 40 88 93 115 131 108 150 -7 21 -275 257 -296 260 -8 2 -19 0
-24 -5z"/>
<path d="M14581 8464 c-23 -26 -41 -50 -41 -53 0 -21 180 -181 203 -181 18 0
87 80 87 101 0 23 -169 179 -194 179 -8 0 -33 -21 -55 -46z"/>
<path d="M4314 8443 c5 -11 -10 -17 -35 -15 -3 1 -11 -49 -17 -111 -6 -62 -14
-120 -17 -129 -6 -14 -2 -18 18 -18 30 0 38 19 62 149 19 107 19 138 0 138 -9
0 -14 -6 -11 -14z"/>
<path d="M14463 8363 c-37 -33 -143 -160 -143 -171 0 -15 177 -172 194 -172
15 0 159 162 164 185 3 12 -172 175 -188 175 -4 0 -17 -8 -27 -17z"/>
<path d="M13521 8248 c-39 -46 -71 -91 -71 -100 0 -17 342 -328 360 -328 11 0
88 80 139 144 21 26 28 43 22 53 -15 28 -346 313 -362 313 -9 0 -48 -37 -88
-82z"/>
<path d="M14834 8257 c-24 -24 -44 -53 -44 -64 0 -17 142 -152 186 -176 11 -7
27 4 60 39 24 27 44 54 44 61 0 11 -156 159 -186 176 -11 6 -28 -4 -60 -36z"/>
<path d="M14112 8203 c-92 -99 -114 -131 -104 -149 16 -29 166 -154 184 -154
16 0 168 162 168 180 0 12 -177 170 -192 170 -6 0 -32 -21 -56 -47z"/>
<path d="M10749 8153 c-17 -15 -41 -41 -51 -58 -17 -26 -19 -27 -12 -5 3 13
13 30 20 38 18 17 18 32 1 32 -17 0 -77 -59 -111 -108 -29 -43 -56 -138 -56
-197 1 -97 39 -191 107 -259 l45 -46 -16 -94 c-21 -121 -21 -119 6 -105 18 9
20 9 15 -4 -3 -8 0 -18 7 -20 9 -3 12 -15 9 -31 -5 -23 -1 -27 26 -32 24 -5
29 -10 21 -19 -8 -10 -6 -15 7 -18 17 -4 17 -5 1 -6 -10 0 -18 -6 -18 -12 0
-7 -11 -9 -26 -6 -14 2 -22 1 -17 -4 5 -5 35 -14 67 -20 48 -10 60 -10 72 3
20 20 86 257 79 286 -4 18 -1 22 18 22 56 0 145 42 205 96 97 87 140 206 122
335 -7 47 -24 99 -33 99 -1 0 0 -25 1 -55 9 -131 -88 -262 -213 -290 l-30 -7
26 15 c14 7 37 17 50 20 34 9 94 71 119 123 30 61 40 137 25 193 -14 53 -56
125 -82 139 -20 12 -48 -11 -39 -33 6 -17 -10 -20 -20 -4 -5 8 -10 6 -16 -5
-5 -9 -14 -16 -19 -16 -6 0 -7 5 -4 10 3 6 1 10 -4 10 -6 0 -11 -5 -11 -11 0
-6 -7 -8 -15 -5 -11 4 -15 0 -13 -12 2 -12 -3 -16 -19 -15 -26 3 -27 0 -13
-28 7 -13 7 -19 0 -19 -5 0 -16 15 -24 33 -8 17 -15 26 -15 19 -1 -7 4 -22 9
-33 7 -13 7 -19 0 -19 -5 0 -10 7 -10 16 0 8 -4 12 -10 9 -9 -6 -59 15 -59 25
0 15 -39 89 -44 83 -4 -3 -7 -1 -7 5 0 19 -16 14 -51 -15z"/>
<path d="M14636 8086 c-42 -46 -76 -90 -76 -99 0 -15 141 -151 178 -171 13 -7
32 8 94 75 44 48 78 93 78 105 0 14 -29 46 -87 97 -49 43 -93 77 -100 77 -6 0
-45 -38 -87 -84z"/>
<path d="M13329 8028 c-89 -101 -92 -105 -82 -121 15 -26 463 -417 478 -417
23 0 165 159 165 185 0 16 -457 419 -480 423 -10 2 -40 -24 -81 -70z"/>
<path d="M15071 8035 c-22 -24 -41 -51 -41 -58 0 -18 175 -171 199 -175 21 -3
91 74 91 101 0 18 -175 177 -195 177 -7 0 -31 -20 -54 -45z"/>
<path d="M14314 7959 c-38 -44 -70 -89 -72 -98 -4 -21 159 -171 186 -171 20 0
162 161 162 183 0 20 -166 167 -189 167 -10 0 -48 -35 -87 -81z"/>
<path d="M13953 7904 c-82 -87 -96 -109 -88 -131 3 -10 44 -51 91 -91 65 -55
89 -70 101 -63 27 15 153 163 153 180 0 14 -157 160 -182 170 -6 2 -40 -27
-75 -65z"/>
<path d="M14884 7893 c-89 -101 -96 -111 -87 -126 16 -28 168 -157 185 -157
22 0 163 156 163 181 0 22 -161 169 -186 169 -8 0 -42 -30 -75 -67z"/>
<path d="M17353 7879 c-47 -48 48 -169 173 -220 70 -29 146 -35 167 -14 22 22
21 38 -2 59 -19 17 -19 17 -15 -1 9 -31 -19 -45 -78 -40 -63 5 -108 23 -165
66 -77 56 -92 123 -31 135 59 12 149 -24 211 -82 20 -20 37 -31 37 -25 0 17
-66 70 -122 99 -60 31 -156 43 -175 23z"/>
<path d="M13100 7767 c-49 -55 -90 -106 -90 -113 0 -18 170 -164 191 -164 22
0 189 187 189 211 0 21 -151 158 -179 164 -16 3 -42 -20 -111 -98z"/>
<path d="M15317 7821 c-30 -32 -45 -56 -41 -65 6 -17 157 -151 187 -168 15 -8
26 -1 63 38 24 27 44 54 44 60 0 13 -137 139 -181 168 -26 16 -26 16 -72 -33z"/>
<path d="M14579 7783 c-64 -68 -109 -122 -109 -133 0 -14 178 -170 194 -170
16 0 166 169 166 186 0 17 -170 164 -189 164 -9 0 -37 -21 -62 -47z"/>
<path d="M14184 7693 c-89 -101 -96 -111 -87 -127 15 -27 168 -156 185 -156
15 0 168 161 168 178 0 12 -13 25 -96 100 -44 39 -88 72 -96 72 -8 0 -41 -30
-74 -67z"/>
<path d="M15103 7666 c-40 -46 -73 -91 -73 -99 0 -19 169 -167 191 -167 8 0
42 30 75 67 89 101 96 111 87 127 -15 28 -172 156 -190 156 -10 0 -49 -36 -90
-84z"/>
<path d="M13339 7565 c-46 -53 -85 -104 -87 -114 -4 -24 162 -174 187 -169 21
3 191 194 191 213 0 18 -171 165 -191 165 -9 0 -54 -43 -100 -95z"/>
<path d="M4170 7643 c-75 -13 -234 -77 -272 -110 -9 -8 -23 -16 -32 -17 -27
-4 -115 -86 -155 -144 -101 -149 -125 -231 -126 -422 0 -133 2 -152 29 -234
71 -217 239 -385 461 -463 73 -25 94 -28 245 -30 137 -2 178 1 245 18 81 20
183 63 220 93 19 15 19 15 -10 14 -16 -1 -34 -5 -40 -8 -5 -4 -19 -10 -30 -13
-13 -5 -9 1 10 15 17 13 51 42 78 67 28 26 47 38 47 29 0 -8 11 -20 25 -26 15
-7 97 -61 183 -121 202 -140 234 -157 274 -140 28 12 98 101 98 126 0 23 -140
118 -203 137 -10 3 -16 10 -12 15 3 6 -5 15 -17 22 -13 7 -25 15 -28 18 -3 4
-40 35 -82 71 -44 36 -78 72 -78 82 0 10 -7 18 -16 18 -10 0 -14 5 -10 15 39
104 51 166 51 275 -1 174 -46 302 -157 441 -154 192 -335 281 -567 278 -58 -1
-117 -4 -131 -6z m-492 -950 c52 -114 193 -256 313 -315 181 -90 366 -108 530
-51 149 51 268 145 364 288 50 74 53 56 4 -26 -36 -61 -155 -180 -222 -223
-114 -72 -238 -106 -380 -106 -265 1 -523 165 -606 385 -10 28 -22 58 -26 68
-14 34 6 16 23 -20z"/>
<path d="M15562 7607 c-23 -23 -42 -50 -42 -59 0 -20 178 -178 200 -178 19 0
90 82 90 104 0 16 -177 176 -195 176 -6 0 -30 -19 -53 -43z"/>
<path d="M13853 7554 c-37 -42 -72 -83 -77 -92 -7 -13 9 -33 80 -99 49 -45 96
-83 104 -83 16 0 120 110 154 163 l18 27 -38 36 c-87 81 -142 124 -157 124 -9
0 -46 -34 -84 -76z"/>
<path d="M14803 7564 c-82 -87 -96 -109 -88 -131 6 -17 139 -138 173 -157 13
-7 32 8 94 75 44 47 78 93 78 105 0 13 -29 46 -86 95 -47 41 -90 76 -96 78 -5
2 -39 -28 -75 -65z"/>
<path d="M14469 7538 c-36 -30 -139 -156 -139 -170 0 -20 168 -168 190 -168
22 0 155 156 155 183 0 22 -154 167 -178 167 -7 0 -20 -6 -28 -12z"/>
<path d="M15341 7460 c-51 -56 -79 -95 -75 -104 8 -21 174 -166 190 -166 16 0
164 165 164 183 0 19 -169 177 -189 177 -6 0 -46 -40 -90 -90z"/>
<path d="M13567 7349 c-48 -55 -87 -104 -87 -109 0 -15 174 -170 191 -170 21
0 189 193 189 217 0 25 -158 162 -186 163 -13 0 -49 -33 -107 -101z"/>
<path d="M14141 7403 c-54 -50 -131 -146 -131 -162 0 -16 161 -163 185 -169
17 -4 165 163 165 186 -1 15 -136 142 -176 165 -8 5 -24 -3 -43 -20z"/>
<path d="M15798 7384 c-21 -25 -38 -49 -38 -54 0 -11 191 -180 204 -180 13 0
96 92 96 107 0 19 -182 173 -205 172 -11 0 -37 -20 -57 -45z"/>
<path d="M15019 7334 c-41 -47 -76 -90 -77 -95 -8 -21 183 -183 202 -172 26
16 156 168 156 183 0 18 -172 170 -192 170 -8 0 -48 -39 -89 -86z"/>
<path d="M14636 7255 c-42 -47 -76 -89 -76 -94 0 -14 178 -171 194 -171 17 0
166 166 166 185 0 20 -167 165 -189 165 -12 0 -50 -34 -95 -85z"/>
<path d="M15577 7253 c-43 -49 -77 -93 -77 -100 0 -14 175 -173 190 -173 12 0
31 19 116 116 30 34 54 66 54 72 0 14 -177 172 -194 172 -7 0 -47 -39 -89 -87z"/>
<path d="M13898 7239 c-35 -20 -179 -191 -176 -210 3 -21 224 -219 244 -219
16 0 194 199 194 216 0 11 -203 199 -233 216 -7 3 -20 2 -29 -3z"/>
<path d="M14367 7188 c-73 -79 -126 -149 -121 -162 5 -14 101 -101 157 -143
17 -12 36 -19 42 -15 18 10 155 171 155 182 0 12 -177 170 -191 170 -6 0 -25
-15 -42 -32z"/>
<path d="M16051 7178 c-22 -24 -41 -50 -41 -60 0 -21 175 -178 199 -178 20 0
91 80 91 103 0 15 -172 170 -194 175 -8 2 -32 -16 -55 -40z"/>
<path d="M15256 7126 c-42 -46 -76 -90 -76 -98 0 -20 168 -168 190 -168 14 0
103 91 160 164 14 18 9 25 -75 102 -50 46 -97 84 -107 84 -9 0 -50 -38 -92
-84z"/>
<path d="M14890 7069 c-109 -117 -108 -109 -20 -191 127 -118 110 -116 202
-18 46 50 78 94 78 106 0 14 -28 46 -85 95 -47 41 -90 76 -96 78 -5 1 -41 -30
-79 -70z"/>
<path d="M15816 7048 c-42 -46 -76 -90 -76 -98 0 -28 172 -182 194 -174 25 9
156 164 156 183 0 20 -164 171 -186 171 -7 0 -46 -37 -88 -82z"/>
<path d="M14556 6928 c-42 -46 -76 -91 -76 -100 0 -20 166 -168 190 -168 21 0
160 157 160 181 0 19 -163 169 -184 169 -8 0 -48 -37 -90 -82z"/>
<path d="M15491 6918 c-39 -45 -71 -89 -71 -99 0 -19 165 -169 186 -169 18 0
164 162 164 182 0 22 -164 168 -189 168 -11 0 -48 -33 -90 -82z"/>
<path d="M16291 6955 c-22 -24 -41 -49 -41 -54 0 -9 160 -159 185 -174 21 -12
44 2 80 50 23 30 32 50 27 60 -15 26 -177 163 -193 163 -9 0 -35 -20 -58 -45z"/>
<path d="M14104 6889 c-49 -55 -90 -107 -92 -114 -3 -14 29 -44 682 -618 241
-213 444 -387 451 -387 11 0 170 174 189 207 6 11 -2 26 -30 53 -90 88 -1089
960 -1100 960 -6 0 -52 -45 -100 -101z"/>
<path d="M15141 6878 c-80 -86 -111 -129 -103 -143 17 -29 169 -155 187 -155
23 0 165 155 165 180 0 17 -170 170 -189 170 -6 0 -34 -24 -60 -52z"/>
<path d="M16047 6835 c-43 -47 -77 -90 -77 -94 0 -22 168 -171 193 -171 19 0
167 159 167 181 0 19 -162 163 -189 167 -12 2 -44 -26 -94 -83z"/>
<path d="M14786 6714 c-42 -48 -76 -90 -76 -95 0 -13 179 -169 194 -169 18 0
166 165 166 184 0 19 -169 166 -191 166 -10 0 -51 -39 -93 -86z"/>
<path d="M15784 6773 c-109 -117 -138 -155 -127 -171 17 -28 172 -162 186
-162 16 0 167 169 167 186 0 12 -127 129 -172 158 -27 18 -28 17 -54 -11z"/>
<path d="M16540 6748 c-22 -24 -40 -50 -40 -60 0 -23 170 -177 196 -178 23 0
94 77 94 102 0 15 -182 178 -200 178 -6 0 -29 -19 -50 -42z"/>
<path d="M15384 6678 c-76 -81 -114 -128 -114 -142 0 -17 165 -160 189 -164
12 -2 44 26 94 83 43 47 77 89 77 93 0 13 -21 35 -101 105 -42 37 -83 67 -91
67 -7 0 -32 -19 -54 -42z"/>
<path d="M16285 6629 c-39 -44 -71 -88 -73 -98 -3 -20 156 -164 187 -169 10
-2 39 22 76 65 90 101 97 111 88 127 -17 30 -169 156 -188 156 -13 0 -46 -30
-90 -81z"/>
<path d="M15076 6567 c-63 -67 -126 -144 -126 -155 0 -18 171 -172 191 -172
24 0 170 175 163 195 -5 13 -153 143 -180 158 -11 6 -25 -2 -48 -26z"/>
<path d="M15967 6506 c-43 -46 -77 -92 -77 -103 0 -17 170 -173 190 -173 16 0
160 168 160 187 0 20 -156 164 -184 171 -7 2 -47 -35 -89 -82z"/>
<path d="M13972 6553 c30 -25 291 -254 918 -807 118 -104 239 -212 268 -240
29 -28 50 -44 47 -36 -3 9 -182 171 -397 360 -215 190 -495 436 -621 548 -126
111 -233 202 -239 202 -5 0 5 -12 24 -27z"/>
<path d="M16788 6534 c-43 -47 -51 -61 -41 -78 14 -24 183 -166 198 -166 21 0
97 99 87 115 -14 25 -180 165 -196 165 -8 0 -30 -16 -48 -36z"/>
<path d="M15582 6428 c-40 -45 -72 -89 -72 -98 0 -19 165 -170 186 -170 22 0
164 159 164 183 0 21 -163 167 -187 167 -12 0 -47 -31 -91 -82z"/>
<path d="M16521 6420 c-51 -56 -79 -95 -75 -104 8 -21 174 -166 190 -166 21 0
166 167 162 188 -3 19 -170 172 -188 172 -5 0 -45 -40 -89 -90z"/>
<path d="M15297 6343 c-83 -89 -107 -121 -107 -139 0 -17 134 -143 175 -167
16 -9 41 13 119 102 31 35 56 71 56 80 0 16 -171 171 -189 171 -5 0 -30 -21
-54 -47z"/>
<path d="M16199 6296 c-40 -47 -75 -90 -77 -96 -8 -22 183 -184 203 -173 24
14 155 168 155 183 0 18 -164 164 -189 168 -11 2 -44 -27 -92 -82z"/>
<path d="M9610 6354 c-14 -8 -194 -68 -400 -135 -206 -66 -517 -167 -690 -224
-430 -142 -419 -138 -464 -139 -36 -1 -42 3 -63 39 -22 37 -23 38 -17 10 8
-42 37 -79 62 -83 12 -2 295 87 629 197 335 110 685 226 780 256 94 31 177 62
184 71 17 20 9 23 -21 8z"/>
<path d="M17031 6316 c-35 -36 -42 -49 -37 -68 9 -30 167 -168 194 -168 29 0
97 86 86 109 -10 20 -180 171 -192 171 -4 0 -27 -20 -51 -44z"/>
<path d="M15851 6258 c-61 -66 -111 -128 -111 -139 0 -12 181 -169 195 -169
16 0 165 168 165 186 0 14 -176 174 -191 174 -5 0 -32 -24 -58 -52z"/>
<path d="M16757 6213 c-43 -49 -77 -93 -77 -100 0 -14 177 -173 192 -173 17 0
168 169 168 188 0 15 -177 172 -193 172 -8 0 -48 -39 -90 -87z"/>
<path d="M15496 6095 c-42 -47 -76 -92 -76 -99 0 -18 171 -166 192 -166 15 0
140 129 161 167 6 10 1 23 -15 40 -43 48 -158 143 -172 143 -8 0 -48 -38 -90
-85z"/>
<path d="M16436 6088 c-42 -46 -76 -90 -76 -100 0 -20 168 -168 191 -168 15 0
169 164 169 179 -1 19 -171 171 -193 171 -8 0 -49 -37 -91 -82z"/>
<path d="M17271 6095 c-45 -49 -47 -54 -28 -76 28 -35 178 -159 192 -159 21 0
97 99 87 114 -14 25 -181 166 -195 166 -8 0 -33 -20 -56 -45z"/>
<path d="M16056 6015 c-42 -47 -76 -92 -76 -100 0 -15 173 -175 189 -175 19 0
171 179 165 195 -8 20 -175 165 -191 165 -6 0 -46 -38 -87 -85z"/>
<path d="M16996 6008 c-42 -46 -76 -91 -76 -100 0 -19 286 -278 306 -278 18 0
164 162 164 182 0 18 -25 43 -189 187 -57 50 -109 91 -116 91 -7 0 -47 -37
-89 -82z"/>
<path d="M15733 5888 c-40 -46 -73 -90 -73 -100 0 -23 169 -170 191 -166 23 4
159 158 159 180 0 21 -164 168 -188 168 -9 0 -50 -37 -89 -82z"/>
<path d="M16671 5880 c-39 -45 -71 -89 -71 -100 0 -20 164 -170 186 -170 21 0
164 158 164 183 0 21 -164 167 -188 167 -12 0 -47 -31 -91 -80z"/>
<path d="M15288 5860 c-101 -110 -108 -123 -82 -151 43 -48 227 -200 237 -196
22 7 187 198 187 216 0 18 -225 221 -246 221 -7 0 -50 -41 -96 -90z"/>
<path d="M16328 5848 c-76 -82 -118 -140 -110 -152 17 -30 169 -156 187 -156
25 0 160 153 160 181 0 20 -161 169 -184 169 -7 0 -31 -19 -53 -42z"/>
<path d="M15966 5675 c-42 -47 -76 -89 -76 -93 0 -18 174 -172 194 -172 17 0
166 165 166 184 0 19 -170 166 -192 166 -9 0 -51 -38 -92 -85z"/>
<path d="M16985 5752 c-23 -16 -155 -170 -155 -180 0 -15 177 -172 194 -172
16 0 166 167 166 186 0 12 -176 174 -189 174 -3 0 -11 -4 -16 -8z"/>
<path d="M15579 5595 c-46 -52 -87 -102 -92 -111 -9 -16 17 -45 126 -136 38
-31 63 -46 72 -41 15 9 150 158 172 190 9 13 11 27 6 36 -15 26 -171 157 -186
157 -8 0 -52 -43 -98 -95z"/>
<path d="M16526 5595 c-42 -47 -76 -89 -76 -93 0 -15 24 -39 155 -153 196
-171 205 -179 215 -179 9 0 77 69 134 138 24 29 33 49 28 58 -15 27 -347 313
-364 314 -9 0 -51 -38 -92 -85z"/>
<path d="M16243 5513 c-90 -96 -115 -131 -108 -150 7 -21 457 -416 478 -421
18 -4 169 166 165 186 -3 16 -435 404 -471 424 -16 8 -26 1 -64 -39z"/>
<path d="M15762 5327 c-23 -23 -42 -50 -42 -59 0 -20 167 -168 190 -168 23 0
90 74 90 99 0 19 -164 171 -184 171 -7 0 -31 -19 -54 -43z"/>
<path d="M16046 5174 c-47 -53 -86 -104 -86 -114 0 -24 167 -172 189 -168 21
4 191 193 191 212 0 20 -166 166 -189 166 -12 0 -53 -38 -105 -96z"/>
<path d="M16230 4905 c-37 -37 -43 -49 -34 -63 22 -34 175 -163 191 -160 26 5
96 94 86 111 -15 26 -168 157 -183 157 -9 0 -36 -20 -60 -45z"/>
<path d="M17444 4664 c-25 -13 -65 -39 -89 -58 l-44 -33 28 -29 c23 -24 312
-419 495 -676 26 -38 52 -68 57 -68 14 0 11 16 -7 31 -9 7 -29 36 -45 64 -16
27 -41 64 -55 81 l-25 32 49 36 49 36 102 -35 c55 -18 101 -32 101 -30 0 3
-40 57 -88 122 -49 65 -154 206 -233 313 -80 107 -153 201 -162 208 -9 8 -32
18 -52 22 -29 6 -45 3 -81 -16z"/>
<path d="M11273 4102 c-6 -4 -14 -19 -18 -33 -4 -15 -17 -32 -31 -39 -30 -17
-31 -34 -1 -25 18 6 20 5 10 -6 -7 -7 -13 -23 -13 -34 0 -31 92 -48 325 -59
l110 -5 -122 19 c-67 10 -153 26 -190 34 l-68 15 70 -6 c39 -3 156 -18 260
-33 138 -20 176 -28 140 -30 -27 -2 -39 -4 -25 -7 52 -8 70 -14 70 -22 0 -6
-10 -12 -22 -14 -13 -2 9 -5 49 -6 39 0 77 -3 85 -6 7 -3 20 0 28 5 13 9 13
11 0 20 -12 8 -10 10 10 9 14 0 44 -4 68 -8 31 -6 44 -5 50 5 4 7 11 13 17 13
5 0 11 4 13 10 2 6 -1 11 -7 11 -7 0 -11 22 -11 54 l0 54 -45 6 c-25 4 -54 4
-65 1 -11 -4 -20 -2 -20 3 0 6 -17 8 -42 5 -27 -4 -39 -3 -35 5 5 7 -7 8 -35
5 -34 -4 -40 -2 -28 7 13 10 12 11 -5 5 -28 -9 -166 -7 -239 4 -33 6 -104 15
-156 21 -52 7 -100 16 -105 21 -6 4 -16 5 -22 1z"/>
<path d="M12166 3986 c3 -8 1 -17 -5 -21 -6 -3 -11 -16 -11 -29 0 -31 -9 -37
-33 -24 -17 9 -19 8 -14 -6 4 -9 2 -16 -3 -16 -6 0 -10 -5 -10 -10 0 -6 11 -8
25 -4 20 5 24 3 19 -10 -3 -9 -3 -16 0 -16 3 0 187 -27 408 -59 495 -73 549
-78 571 -57 13 14 35 15 145 10 84 -5 131 -3 135 3 4 7 -16 10 -56 9 -34 0
-95 1 -134 4 l-73 4 0 42 c0 39 -3 43 -32 53 -18 6 -73 17 -123 26 -125 21
-775 115 -797 115 -11 0 -15 -5 -12 -14z"/>
<path d="M16350 3882 c-150 -108 -228 -162 -237 -162 -3 0 -36 -21 -75 -46
-43 -29 -76 -44 -88 -41 -21 5 -55 -25 -43 -38 5 -4 3 -5 -4 -2 -6 4 -43 -27
-88 -75 -91 -99 -141 -135 -201 -144 -35 -5 -44 -10 -44 -26 0 -10 -24 -42
-52 -70 -29 -28 -44 -46 -33 -40 29 15 248 170 400 282 71 53 142 105 156 116
113 83 427 320 439 331 35 32 -5 6 -130 -85z"/>
<path d="M17528 3934 c-16 -8 -28 -19 -28 -25 0 -6 39 -65 87 -132 133 -186
133 -186 162 -181 21 4 34 -3 62 -33 71 -74 491 -612 491 -630 1 -4 -15 -16
-34 -25 -43 -20 -62 -43 -54 -63 11 -29 36 -27 86 5 51 33 62 57 35 80 -8 6
-13 15 -12 18 1 4 -18 32 -41 62 -23 30 -151 206 -284 390 -133 184 -272 378
-310 430 -37 52 -66 100 -63 107 6 18 -63 16 -97 -3z"/>
<path d="M17862 3719 c21 -15 26 -27 22 -42 -5 -23 74 -148 184 -290 27 -34
58 -83 70 -108 12 -25 37 -60 55 -77 39 -38 60 -62 52 -62 -13 0 17 -40 38
-51 l22 -12 -22 25 c-29 30 -29 42 -2 28 11 -7 23 -9 26 -6 12 11 -28 55 -55
61 -38 8 -76 48 -101 108 -11 26 -53 92 -93 145 -167 223 -178 243 -142 273
14 12 14 14 -3 20 -10 4 -31 8 -48 8 l-30 0 27 -20z"/>
<path d="M16341 3680 c-30 -22 -47 -40 -39 -40 9 0 21 7 28 15 7 9 19 14 27
11 8 -3 11 -2 8 4 -3 5 4 14 16 21 17 9 24 8 30 -2 4 -8 35 -51 69 -97 34 -46
61 -85 59 -87 -2 -2 -22 -17 -43 -34 l-39 -31 -18 27 c-10 16 -24 37 -31 47
-7 11 -21 28 -30 38 -19 19 -24 38 -10 38 5 0 21 10 36 23 l26 23 -27 25 c-25
21 -26 21 -9 2 13 -16 15 -23 6 -23 -7 0 -10 -3 -7 -7 4 -3 2 -12 -5 -20 -9
-11 -14 -11 -31 4 -19 18 -20 17 -8 -7 l12 -25 -21 24 c-41 47 -27 14 23 -54
182 -247 240 -325 244 -325 5 0 -24 42 -90 130 l-49 65 38 33 c20 17 40 32 44
32 4 0 22 -21 40 -47 37 -51 197 -268 367 -498 81 -109 103 -145 98 -162 -3
-13 -3 -23 -1 -23 8 0 67 102 62 107 -2 3 -12 -10 -21 -27 -16 -32 -17 -32
-34 -14 -19 20 -505 681 -601 816 -30 42 -57 77 -60 77 -3 0 -29 -18 -59 -39z"/>
<path d="M18470 3440 c0 -5 5 -10 10 -10 6 0 10 -43 10 -110 l0 -110 -40 -28
c-27 -18 -39 -33 -36 -44 7 -30 -9 -20 -37 25 -35 54 -95 122 -102 115 -6 -5
-5 -6 298 -407 137 -181 197 -269 195 -283 -2 -14 -43 -49 -120 -102 -65 -45
-235 -164 -377 -266 -223 -158 -263 -190 -278 -224 -10 -22 -28 -51 -41 -65
-12 -13 -20 -26 -18 -28 6 -6 962 701 1014 750 27 26 32 38 32 77 0 53 17 26
-220 345 -249 335 -260 351 -260 364 0 6 -7 11 -15 11 -8 0 -15 -4 -15 -10z"/>
<path d="M15568 3114 c-4 -5 87 -135 200 -289 114 -154 257 -348 317 -430 237
-322 296 -400 306 -403 5 -2 -30 49 -79 115 -243 325 -729 990 -734 1003 -2 7
-7 10 -10 4z"/>
<path d="M17296 3086 c-22 -14 -48 -38 -59 -55 -10 -17 -21 -31 -24 -31 -2 0
-1 5 3 12 4 7 3 8 -4 4 -6 -4 -9 -13 -6 -20 3 -8 -5 -24 -18 -36 -13 -13 -17
-19 -9 -15 10 6 8 -3 -6 -26 -26 -43 -73 -130 -153 -284 -34 -66 -79 -149 -99
-185 -21 -36 -66 -121 -101 -190 -34 -69 -66 -129 -70 -135 -18 -24 -468 -884
-480 -916 -28 -78 1 -124 137 -214 40 -26 70 -51 68 -56 -3 -4 -85 -67 -183
-138 -97 -72 -208 -155 -247 -186 -53 -42 -76 -54 -93 -50 -33 8 -19 -9 24
-30 54 -26 88 -14 209 75 61 44 174 126 252 183 125 89 140 104 125 114 -52
37 -50 40 8 10 106 -56 417 -216 480 -248 96 -47 171 -36 223 33 14 18 92 159
174 313 502 936 792 1485 803 1518 16 51 6 100 -31 142 -30 34 -65 53 -576
317 -243 125 -281 136 -347 94z m156 -57 c67 -31 68 -33 68 -70 0 -34 5 -42
38 -62 75 -47 410 -217 427 -217 11 0 29 9 41 21 l22 20 43 -21 c24 -12 59
-33 77 -47 28 -21 32 -30 32 -69 0 -41 -49 -138 -482 -951 -507 -949 -497
-933 -563 -933 -33 0 -773 384 -802 416 -14 15 -23 38 -23 56 0 21 66 156 204
417 113 212 328 620 480 906 328 621 306 594 438 534z"/>
<path d="M16735 1857 c-19 -35 -35 -69 -35 -75 0 -5 46 -34 103 -62 88 -45
222 -115 624 -325 l82 -43 41 75 c23 41 40 76 38 77 -2 2 -91 48 -198 103
-107 55 -288 148 -402 207 -113 58 -208 106 -212 106 -3 0 -21 -29 -41 -63z"/>
<path d="M10622 2850 c-8 -14 -24 -20 -50 -21 -32 0 -29 -2 25 -14 116 -25
147 -46 309 -205 141 -138 174 -165 174 -141 0 5 15 12 33 15 19 3 42 13 53
21 17 13 16 13 -16 5 -43 -12 -43 -12 -35 0 4 6 3 9 -2 8 -4 -1 -18 2 -31 6
-27 9 -20 26 11 27 12 0 16 3 9 6 -6 2 -10 8 -7 13 7 11 -31 24 -44 15 -6 -3
-9 4 -8 15 1 11 5 20 9 20 4 0 5 7 2 15 -5 12 -10 13 -20 4 -9 -8 -14 -8 -14
-1 0 6 -12 9 -27 6 -14 -3 -33 -2 -41 1 -13 5 -12 8 3 19 17 12 17 13 0 20
-10 3 -25 1 -34 -6 -14 -12 -14 -11 -2 5 10 12 10 17 2 17 -8 0 -10 8 -5 23 3
12 3 19 -1 15 -5 -4 -14 0 -20 9 -11 14 -16 15 -28 5 -9 -8 -18 -9 -21 -3 -4
5 -2 12 4 16 19 12 -1 26 -28 20 -18 -3 -37 2 -57 15 -44 29 -118 70 -127 70
-2 0 -9 -9 -16 -20z"/>
<path d="M10393 2601 c-9 -14 -9 -21 0 -30 18 -18 -5 -13 -26 7 -19 17 -20 16
-8 -6 l13 -24 -31 23 c-17 12 -33 20 -36 17 -7 -6 75 -61 150 -102 28 -15 93
-63 145 -107 52 -45 127 -103 167 -130 l72 -49 46 23 c25 13 42 26 39 30 -4 4
-1 13 5 21 9 11 10 20 1 36 -9 16 -8 25 2 38 9 12 5 11 -11 -3 -21 -17 -23
-17 -18 -3 4 11 0 19 -13 23 -25 8 -32 32 -18 55 7 10 8 23 4 27 -5 4 -11 2
-13 -5 -7 -18 -34 -44 -41 -38 -2 3 2 16 11 29 14 22 14 23 -4 22 -11 -1 -25
-7 -31 -13 -18 -18 -31 -14 -25 8 3 11 1 17 -4 14 -6 -3 -16 0 -24 6 -8 7 -20
8 -27 3 -22 -14 -87 -11 -81 4 3 7 9 13 14 13 5 0 9 5 9 11 0 8 -4 9 -13 0 -8
-6 -17 -8 -21 -4 -4 4 -11 1 -16 -7 -8 -13 -10 -13 -10 -1 0 8 8 24 18 35 16
20 16 20 -2 6 -16 -12 -20 -12 -30 0 -6 8 -22 16 -35 18 -14 1 -33 12 -44 23
-13 14 -22 17 -31 10 -9 -8 -19 -4 -36 14 -28 30 -32 30 -47 6z"/>
<path d="M14550 2453 c0 -29 24 -63 388 -553 191 -256 418 -562 506 -680 87
-118 189 -255 226 -305 37 -49 108 -146 159 -214 50 -68 91 -121 91 -118 0 10
-253 363 -629 877 -195 267 -416 568 -490 670 -232 319 -251 343 -251 323z"/>
<path d="M9935 2420 c-4 -6 -15 -8 -26 -5 -14 5 -20 0 -24 -18 -13 -51 -2 -69
57 -101 31 -17 81 -49 110 -72 92 -71 154 -112 216 -143 79 -40 140 -82 231
-159 42 -35 90 -71 107 -79 19 -9 45 -38 65 -71 19 -31 48 -69 64 -85 17 -16
35 -41 42 -56 l12 -26 -5 30 c-4 28 -4 29 7 8 20 -38 30 -26 14 14 -13 31 -35
62 -65 93 -3 3 -12 14 -20 24 -14 18 -14 19 5 8 31 -17 122 -104 103 -98 -24
7 -22 -5 7 -48 14 -20 26 -42 26 -49 1 -7 4 1 8 17 l6 30 27 -42 c15 -23 25
-48 22 -56 -3 -8 1 -25 10 -38 18 -25 21 -42 7 -33 -12 7 -25 -31 -16 -45 3
-5 1 -10 -4 -10 -6 0 -11 8 -11 17 0 15 -1 15 -13 -1 -17 -23 -67 -12 -75 16
-3 13 -11 18 -23 15 -11 -3 -19 -1 -19 4 0 9 -55 41 -67 38 -5 -2 -19 18 -31
42 -19 35 -23 38 -19 17 2 -15 0 -25 -5 -22 -5 3 -7 22 -4 43 9 52 -4 67 -44
52 -43 -14 -50 -14 -50 3 0 8 -7 16 -15 20 -8 3 -15 13 -15 21 0 11 -6 15 -18
11 -13 -5 -21 2 -30 26 -6 17 -15 29 -18 25 -9 -8 -34 18 -34 36 0 8 -8 18
-17 22 -15 5 -16 4 -5 -6 6 -7 12 -21 12 -30 0 -9 7 -19 15 -23 8 -3 15 -15
15 -26 0 -11 5 -20 10 -20 6 0 10 -6 10 -12 -1 -7 -9 -3 -19 10 -12 13 -25 20
-35 16 -10 -4 -16 -1 -16 7 -1 8 -17 27 -38 43 -20 16 -30 26 -20 23 9 -3 23
2 32 12 21 24 20 29 -6 29 -13 0 -32 2 -43 4 -13 2 -23 -5 -29 -19 -6 -12 -18
-24 -28 -26 -24 -7 -23 -4 17 49 36 47 47 77 21 55 -10 -8 -16 -9 -21 -1 -3 5
-1 10 6 10 7 0 10 3 7 6 -7 7 -49 -14 -61 -30 -5 -6 -6 -2 -2 9 20 56 19 60
-8 30 -26 -30 -27 -30 -33 -8 -3 13 -11 20 -16 17 -20 -13 -90 -10 -104 3 -7
8 -29 14 -48 15 -26 1 -43 10 -64 32 -15 17 -30 36 -32 41 -3 6 -10 9 -17 7
-7 -2 -13 3 -13 10 -1 7 -11 21 -23 30 -12 10 -35 29 -52 43 -33 27 -45 31
-45 13 0 -6 -9 -3 -20 7 -23 21 -27 8 -5 -21 8 -10 15 -21 15 -24 0 -10 -45
-5 -67 8 -21 11 -23 11 -23 -7 0 -11 10 -46 21 -78 21 -53 21 -59 6 -85 -16
-27 -15 -28 9 -34 23 -6 23 -7 7 -20 -15 -11 -15 -13 -3 -14 12 -1 12 -3 -2
-14 -10 -7 -15 -16 -11 -19 3 -4 -1 -7 -10 -7 -10 0 -16 -3 -16 -7 1 -5 1 -15
0 -23 -1 -13 -2 -13 -11 0 -8 12 -10 11 -10 -7 0 -14 6 -23 15 -23 8 0 15 -5
15 -10 0 -6 -6 -10 -12 -8 -7 1 -26 -10 -42 -25 -16 -15 -35 -27 -42 -27 -8 0
-14 -4 -14 -10 0 -5 6 -10 13 -10 8 0 8 -3 -2 -9 -19 -12 -9 -34 25 -51 46
-22 95 -61 90 -69 -3 -4 11 -23 31 -42 19 -19 48 -61 64 -94 16 -33 32 -59 36
-57 15 5 14 -91 0 -122 -8 -17 -24 -52 -35 -77 -11 -26 -34 -62 -51 -82 -17
-19 -31 -40 -31 -46 0 -7 -26 -24 -57 -39 -70 -33 -151 -34 -254 -3 -89 28
-166 99 -198 186 -41 109 -15 254 61 335 13 13 28 33 33 43 14 28 94 67 165
80 61 12 61 12 56 41 -4 17 -15 39 -25 51 -16 17 -61 144 -61 171 0 22 30 -51
41 -101 13 -59 34 -74 34 -25 0 17 -5 30 -10 30 -12 0 -66 163 -65 198 0 12
-3 22 -8 22 -26 0 -170 -62 -232 -99 -8 -5 -23 -12 -32 -15 -23 -7 -23 -47 1
-186 17 -101 18 -105 42 -103 23 3 23 2 5 -12 -31 -23 -3 -100 32 -88 15 5 14
3 -2 -15 -25 -29 -32 -28 -41 6 -4 15 -9 22 -12 15 -2 -7 -11 -9 -19 -6 -8 3
-14 0 -14 -6 0 -6 6 -11 13 -11 6 0 4 -5 -5 -11 -10 -5 -18 -20 -18 -32 0 -16
-3 -18 -9 -9 -6 11 -9 9 -13 -6 -3 -11 -1 -25 5 -31 8 -8 6 -11 -6 -11 -20 0
-23 -16 -4 -23 9 -3 9 -7 -2 -20 -10 -12 -11 -21 -3 -30 12 -14 5 -57 -9 -57
-15 0 -22 22 -9 30 10 6 9 15 -3 40 -14 27 -14 35 -3 53 7 12 12 28 11 35 -2
6 -3 17 -4 23 -2 19 -21 -2 -21 -24 0 -18 -2 -19 -11 -7 -8 12 -9 9 -5 -13 6
-26 5 -27 -24 -22 -28 5 -29 4 -20 -21 13 -33 8 -40 -13 -19 -9 8 -18 15 -22
15 -3 0 55 -66 130 -147 112 -119 135 -150 131 -169 -4 -14 -1 -24 10 -28 8
-3 12 -2 9 4 -3 6 1 7 9 4 9 -3 14 -10 11 -14 -3 -5 -1 -11 5 -15 5 -3 10 -15
10 -26 0 -10 5 -19 11 -19 5 0 7 5 4 10 -3 6 1 10 9 10 9 0 16 -4 16 -10 0 -5
6 -10 14 -10 7 0 16 -9 19 -20 3 -12 14 -20 26 -20 14 0 19 -5 15 -15 -5 -11
0 -14 17 -13 15 2 23 -2 22 -9 -2 -7 6 -13 17 -13 21 0 27 -15 10 -25 -13 -8
-3 -25 13 -25 7 0 6 4 -3 10 -12 8 -12 10 3 16 11 4 25 0 37 -11 15 -14 22
-14 40 -5 15 8 20 8 16 1 -4 -6 -2 -11 3 -11 6 0 11 10 11 22 0 21 0 21 16 2
15 -18 15 -17 10 13 -5 29 -3 33 22 38 15 3 49 17 75 31 27 14 46 20 42 14
-13 -21 -7 -91 10 -116 32 -48 54 -50 145 -9 l82 37 151 -1 c84 0 166 0 182
-1 17 -1 84 6 150 15 87 11 157 14 255 10 132 -6 212 0 395 29 50 8 117 14
150 15 68 1 166 11 177 17 3 2 9 0 13 -6 4 -6 12 -7 18 -3 17 11 68 12 94 2
14 -5 23 -5 23 1 0 6 -6 10 -12 11 -7 0 -2 5 11 10 14 5 32 9 40 7 9 -1 27 2
40 6 16 6 26 4 32 -5 8 -12 11 -11 19 1 8 13 14 13 42 1 18 -7 49 -17 68 -21
19 -4 29 -8 23 -9 -16 -1 -17 -31 -2 -31 6 0 9 -7 5 -15 -3 -8 -1 -15 4 -15 6
0 10 5 10 11 0 7 16 8 48 3 53 -7 80 -24 41 -25 -22 0 -22 -1 -4 -9 28 -12 47
-12 40 0 -3 6 -3 10 1 10 11 0 169 -93 172 -102 2 -4 9 -8 15 -8 24 1 147 -65
147 -78 0 -7 8 -12 17 -10 12 2 19 -6 23 -27 5 -28 6 -29 17 -10 11 18 12 19
18 2 4 -9 13 -17 20 -17 7 0 18 -7 25 -15 15 -18 14 -18 -28 -6 -17 5 -32 6
-32 1 0 -9 35 -20 69 -20 16 0 21 -4 18 -14 -4 -10 4 -17 26 -22 17 -3 46 -16
63 -28 157 -105 193 -138 186 -171 -5 -28 53 -89 211 -221 l88 -74 1304 0
c718 0 1305 3 1305 6 0 3 -43 25 -95 49 -121 56 -146 75 -207 157 -27 37 -82
97 -121 133 -108 99 -188 194 -297 355 -57 83 -138 186 -190 240 -50 52 -116
128 -146 167 -30 40 -92 104 -137 141 -87 73 -347 337 -347 353 0 18 -39 9
-45 -10 -3 -11 -38 -36 -78 -57 -66 -34 -229 -147 -234 -162 -2 -4 18 -20 42
-37 25 -16 45 -32 45 -35 0 -8 -75 -89 -214 -230 -73 -74 -199 -209 -280 -300
-178 -198 -294 -313 -313 -306 -7 3 -13 -1 -13 -9 0 -8 -7 -15 -15 -15 -8 0
-15 5 -15 10 0 6 -5 10 -11 10 -6 0 -9 -12 -7 -27 2 -16 -2 -28 -11 -31 -10
-3 -12 3 -7 26 5 22 3 31 -8 35 -10 4 -13 13 -10 24 5 14 4 15 -4 4 -8 -11
-13 -8 -27 15 -9 16 -14 21 -11 11 4 -12 2 -17 -6 -14 -7 2 -12 11 -12 20 1 9
-4 13 -12 10 -19 -7 -18 -9 18 -41 25 -24 28 -30 15 -35 -10 -4 -14 -2 -11 6
2 7 -12 23 -32 36 -28 20 -37 22 -44 11 -7 -11 -11 -10 -25 3 -9 10 -21 17
-26 17 -5 0 -9 6 -9 13 0 6 -4 18 -9 26 -7 11 -14 10 -37 -5 -20 -13 -9 4 35
56 155 185 481 650 454 650 -4 0 -24 -25 -43 -56 -23 -37 -36 -50 -38 -39 -3
15 -6 15 -25 -2 -11 -10 -18 -13 -14 -8 3 6 -7 16 -23 24 -26 11 -35 9 -82
-13 -29 -14 -54 -21 -56 -16 -2 5 -10 6 -19 3 -13 -5 -15 -2 -11 15 5 16 2 19
-11 14 -9 -3 -19 -10 -23 -16 -5 -7 -8 -7 -8 2 0 8 -9 10 -27 6 -22 -4 -25 -3
-13 5 8 6 25 11 36 11 12 0 24 7 28 15 3 8 14 15 25 15 14 0 23 9 27 25 3 14
11 29 18 33 6 4 20 20 30 35 9 16 20 26 24 23 3 -4 1 -11 -5 -17 -6 -6 -9 -17
-7 -23 3 -7 -6 -18 -19 -25 -13 -7 -24 -19 -24 -27 0 -10 4 -11 14 -3 10 9 13
7 13 -7 1 -19 1 -19 11 0 9 15 13 16 20 5 6 -9 9 -1 10 26 0 22 4 49 9 60 l9
20 1 -20 c1 -15 3 -16 7 -5 3 8 11 18 17 22 8 5 7 8 -1 8 -17 0 -16 18 2 36 8
9 15 21 15 27 0 7 -7 4 -14 -5 -15 -21 -28 -23 -25 -5 4 29 -2 57 -11 57 -5 0
-10 -7 -10 -16 0 -8 -5 -12 -11 -9 -6 4 -8 14 -5 22 5 11 1 13 -16 7 -21 -6
-21 -6 -4 11 17 18 17 19 -5 36 -28 21 -58 7 -38 -17 8 -10 6 -13 -9 -11 -18
1 -19 3 -5 44 10 28 11 48 5 59 -6 11 -11 13 -16 5 -4 -6 -2 -11 3 -11 6 0 3
-8 -6 -18 -10 -10 -25 -17 -33 -14 -11 3 -12 2 -2 -5 9 -7 6 -15 -14 -34 -16
-14 -25 -18 -22 -9 3 9 -6 20 -20 27 -28 15 -32 16 -31 6 3 -19 -2 -33 -11
-33 -5 0 -10 17 -11 38 -1 36 -1 37 -8 7 -8 -33 -29 -75 -37 -75 -2 0 0 8 5
19 6 10 7 21 4 25 -3 3 -1 6 6 6 8 0 11 6 7 16 -3 8 -2 24 4 34 7 13 6 19 -6
24 -22 8 -26 8 -19 -4 3 -5 3 -15 0 -20 -9 -14 -35 14 -35 37 -1 17 -1 17 -11
0 -7 -12 -7 -22 0 -30 5 -7 15 -26 21 -42 l11 -30 -25 30 c-14 17 -25 34 -26
38 0 10 -26 37 -35 37 -3 0 -3 -10 0 -22 5 -18 4 -20 -4 -8 -6 8 -8 23 -5 32
3 10 0 26 -6 35 -8 14 -9 3 -5 -42 4 -33 8 -61 10 -64 5 -5 -26 -30 -38 -31
-4 0 -5 10 -2 23 4 15 1 28 -9 36 -9 8 -16 19 -16 26 0 7 -7 19 -16 26 -15 12
-16 11 -10 -9 5 -13 3 -22 -3 -22 -6 0 -11 -5 -11 -11 0 -6 6 -9 13 -6 8 3 12
-10 13 -47 1 -28 -1 -41 -3 -28 -5 24 -18 29 -27 10 -3 -7 -3 -1 0 14 8 37 -3
53 -24 36 -13 -11 -15 -10 -9 5 4 10 3 16 -2 12 -15 -9 -41 6 -41 24 0 14 -2
14 -10 1 -6 -10 -10 -11 -10 -2 0 6 -7 12 -15 12 -8 0 -15 5 -15 10 0 6 -7 10
-15 10 -9 0 -12 6 -8 18 8 22 -1 13 -17 -17 -11 -21 -10 -23 4 -18 21 8 20 -2
-2 -30 l-17 -23 -12 25 c-9 21 -8 29 8 49 21 27 25 46 8 46 -6 0 -9 -6 -6 -12
2 -7 -4 -20 -14 -29 -10 -9 -20 -27 -22 -40 -2 -12 -10 -25 -16 -27 -14 -5 -6
35 10 53 12 12 11 46 -2 65 -8 13 -9 12 -7 -4 6 -37 -22 -28 -38 13 -18 46
-43 56 -62 26 -10 -14 -12 -15 -8 -3 3 10 1 20 -5 24 -6 3 -8 13 -5 21 4 11 2
13 -9 9 -18 -7 -18 -4 -3 29 9 19 9 28 0 37 -9 9 -12 5 -12 -20 0 -24 -4 -30
-15 -26 -10 4 -18 -3 -24 -19 -12 -32 -36 -49 -27 -19 4 12 2 23 -5 28 -7 4
-9 3 -6 -3 4 -6 0 -16 -8 -23 -19 -16 -19 -3 0 30 19 32 20 61 3 37 -11 -15
-13 -8 -12 40 0 33 6 59 12 61 8 2 8 7 -1 16 -10 11 -16 11 -33 0 -11 -8 -24
-11 -27 -7 -11 10 -8 33 4 33 5 0 7 -4 4 -10 -3 -5 -2 -10 3 -10 6 0 13 7 16
16 3 8 2 12 -4 9 -6 -3 -11 6 -11 22 -1 17 -3 21 -6 11 -2 -10 -9 -18 -14 -18
-5 0 -9 8 -9 18 0 10 -3 13 -8 6 -10 -15 -44 -14 -38 1 2 7 0 18 -5 26 -7 11
-9 11 -9 1 0 -7 -4 -11 -9 -8 -5 3 -7 16 -4 29 3 12 3 19 -1 15 -12 -10 -46
30 -53 62 -7 37 -19 38 -51 3 l-25 -28 17 28 c14 22 15 31 6 43 -7 7 -10 20
-7 28 3 8 -2 16 -14 19 -16 4 -18 3 -9 -8 8 -9 8 -20 2 -31 -8 -14 -11 -12
-20 15 -11 32 -27 40 -35 19 -3 -7 -6 -3 -6 10 -1 24 -12 27 -42 12 -14 -8
-19 -7 -19 2 0 9 -3 9 -8 2 -9 -14 -52 -25 -52 -13 0 5 3 9 8 9 4 0 8 15 9 34
1 29 -1 33 -18 29 -11 -3 -22 -9 -25 -14 -3 -5 2 -6 10 -3 9 3 16 2 16 -4 0
-5 -7 -12 -15 -16 -8 -3 -14 -9 -13 -13 2 -4 0 -9 -4 -10 -22 -8 -28 0 -23 26
6 36 -19 50 -36 19 -6 -11 -7 -18 -1 -14 5 3 12 0 15 -8 7 -18 -17 -28 -31
-14 -16 16 -97 -9 -84 -25 15 -17 -7 -42 -38 -43 -14 -1 -28 3 -31 9 -8 11
-29 1 -29 -14 0 -5 7 -9 16 -9 12 0 15 -6 10 -26 -6 -22 -4 -25 14 -19 15 5
19 3 14 -9 -3 -9 -14 -16 -23 -16 -14 0 -14 -2 -1 -10 12 -7 9 -11 -15 -16
-16 -3 -39 -17 -49 -32 -18 -23 -18 -25 -2 -19 13 5 16 3 12 -11 -5 -14 1 -17
35 -19 33 -1 38 1 28 13 -13 16 -1 18 21 4 25 -15 -5 -34 -50 -33 -29 1 -40
-2 -40 -12 0 -9 6 -12 15 -9 8 4 15 2 15 -4 0 -6 -13 -13 -29 -17 -22 -5 -28
-11 -26 -30 3 -21 0 -23 -31 -19 -29 4 -34 1 -40 -21 -3 -14 -13 -25 -21 -25
-8 0 -11 -4 -8 -10 3 -5 0 -10 -9 -10 -8 0 -16 -5 -18 -11 -4 -12 -46 -19 -62
-11 -4 3 -25 6 -45 8 -94 9 -109 11 -120 18 -6 4 -11 3 -11 -3 0 -6 -7 -8 -16
-4 -8 3 -26 0 -40 -7 -20 -11 -27 -11 -42 3 -21 20 -38 11 -20 -10 14 -17 -6
-35 -29 -26 -11 4 -10 8 4 19 17 13 17 13 -2 14 -15 1 -16 3 -5 7 8 4 21 12
28 20 12 11 11 18 -4 41 -18 26 -20 31 -23 51 0 5 -10 11 -21 14 -11 3 -20 11
-20 19 0 10 3 9 10 -2 8 -12 10 -12 10 5 -1 24 -23 55 -40 55 -10 0 -10 3 0
15 10 12 5 17 -24 29 -20 8 -36 21 -36 28 0 9 -3 9 -10 -2 -9 -13 -14 -11 -34
12 -13 15 -26 32 -28 39 -3 8 -11 10 -24 4 -15 -6 -16 -9 -4 -12 8 -3 26 -19
40 -36 l25 -32 -27 20 c-15 11 -28 23 -28 28 0 4 -5 7 -11 7 -6 0 -17 7 -25
15 -8 8 -20 12 -27 9 -7 -2 -22 5 -32 16 -14 16 -21 18 -28 8 -7 -10 -10 -10
-14 0 -2 6 -9 10 -14 6 -5 -3 -17 3 -26 12 -13 13 -14 19 -5 22 6 2 12 8 12
13 0 4 -8 6 -17 2 -14 -5 -16 -3 -6 7 9 10 7 17 -13 33 -21 16 -30 18 -50 8
-38 -17 -28 2 21 39 25 19 53 45 62 59 l16 26 -29 -26 c-45 -41 -155 -97 -161
-81 -7 18 -23 15 -23 -5 0 -14 -4 -13 -24 6 -20 19 -24 20 -30 6 -7 -20 -28
-9 -24 13 2 9 -7 21 -19 27 -13 7 -31 19 -41 28 -10 10 -23 17 -29 17 -6 0
-13 7 -17 15 -6 17 -22 20 -31 5z"/>
<path d="M7831 1842 c-25 -42 -72 -115 -106 -162 -122 -169 -152 -215 -152
-233 0 -16 2 -16 24 -2 21 14 23 14 23 -4 0 -14 5 -19 15 -15 12 5 13 9 3 21
-13 16 3 33 34 33 9 0 19 6 21 13 3 6 6 3 6 -9 1 -11 -11 -32 -26 -46 -29 -26
-73 -43 -73 -27 0 5 -7 9 -16 9 -13 0 -14 -3 -4 -15 10 -12 8 -16 -15 -25 -14
-5 -31 -10 -36 -10 -11 0 -68 -61 -69 -73 0 -4 10 -3 21 4 12 6 19 7 15 1 -3
-5 1 -15 8 -21 10 -8 16 -9 21 -1 3 5 14 10 23 10 31 0 -19 -26 -90 -46 -49
-13 -68 -23 -68 -35 0 -10 -24 -31 -57 -50 -31 -19 -58 -40 -61 -47 -2 -8 14
-2 36 13 33 22 44 25 61 15 16 -8 27 -8 44 1 19 11 21 10 9 -3 -16 -20 -72
-30 -65 -11 3 7 1 13 -5 13 -5 0 -12 -9 -15 -19 -3 -13 -17 -22 -41 -26 -20
-4 -34 -11 -31 -15 3 -4 -2 -13 -10 -20 -9 -7 -13 -21 -10 -31 3 -9 0 -21 -6
-25 -9 -5 -10 -2 -5 12 4 12 4 15 -2 9 -14 -15 -82 -170 -82 -186 0 -8 -20
-48 -43 -89 -24 -41 -52 -96 -62 -121 -18 -44 -24 -48 -139 -107 -125 -64
-299 -187 -391 -278 -29 -28 -71 -82 -93 -121 -23 -38 -48 -75 -56 -82 -9 -8
-13 -17 -10 -22 3 -5 -1 -6 -9 -3 -8 3 -18 1 -22 -5 -4 -8 371 -11 1283 -11
l1290 0 138 143 c77 79 170 179 208 223 39 43 98 108 132 144 35 36 66 78 70
93 6 25 0 34 -46 78 -29 28 -59 48 -66 45 -15 -6 -37 17 -26 30 4 4 -1 2 -10
-5 -12 -9 -18 -10 -18 -2 0 6 -7 11 -15 11 -7 0 -18 6 -22 13 -4 7 -21 21 -38
31 -16 11 -45 33 -64 50 -74 67 -201 185 -306 287 -178 172 -456 420 -595 531
-77 62 -272 188 -282 182 -5 -3 -7 -1 -6 4 3 10 -55 62 -68 62 -5 0 -29 -35
-53 -78z"/>
<path d="M9400 1539 c0 -4 7 -23 16 -44 8 -20 11 -34 5 -31 -5 4 -15 22 -21
41 -6 19 -14 35 -16 35 -13 0 -82 -51 -106 -78 -100 -114 -95 -283 13 -390
l33 -34 28 31 c37 41 46 40 14 -2 -15 -19 -26 -36 -26 -39 0 -3 27 -16 61 -28
51 -19 62 -21 70 -9 7 12 9 12 9 0 0 -10 14 -12 65 -8 36 2 69 7 72 11 4 3 -1
22 -10 41 -9 19 -13 35 -9 35 4 0 14 -16 21 -35 12 -34 13 -35 39 -21 34 19
82 61 82 72 0 5 -13 18 -29 29 -17 11 -28 21 -26 23 2 2 17 -5 33 -17 17 -12
33 -21 37 -21 12 0 55 107 61 153 17 119 -101 274 -215 285 -42 4 -50 2 -54
-14 -4 -16 -5 -15 -6 4 -1 22 -4 23 -71 20 -38 -2 -70 -6 -70 -9z"/>
</g>
</svg>
